<mxfile host="app.diagrams.net" modified="2023-10-04T04:54:56.072Z" agent="Mozilla/5.0 (Windows NT 10.0; Win64; x64) AppleWebKit/537.36 (KHTML, like Gecko) Chrome/117.0.0.0 Safari/537.36" version="22.0.0" etag="YtSKRiyMjKP4dvxp7ETk" type="github">
  <diagram name="Page-1" id="1VKHMXgvj8q7Qcpl8yLQ">
    <mxGraphModel>
      <root>
        <mxCell id="0" />
        <mxCell id="1" parent="0" />
      </root>
    </mxGraphModel>
  </diagram>
</mxfile>
